<?xml version="1.0" standalone="no"?>
<!DOCTYPE svg PUBLIC "-//W3C//DTD SVG 20010904//EN"
 "http://www.w3.org/TR/2001/REC-SVG-20010904/DTD/svg10.dtd">
<svg version="1.0" xmlns="http://www.w3.org/2000/svg"
 width="512.000000pt" height="512.000000pt" viewBox="0 0 512.000000 512.000000"
 preserveAspectRatio="xMidYMid meet">
<metadata>
Created by potrace 1.11, written by Peter Selinger 2001-2013
</metadata>
<g transform="translate(0.000000,512.000000) scale(0.100000,-0.100000)"
fill="#000000" stroke="none">
<path d="M2668 5060 c-38 -9 -68 -15 -68 -13 0 2 -9 -1 -20 -7 -11 -6 -35 -11
-55 -12 -19 -1 -32 -4 -30 -7 2 -4 -4 -7 -13 -8 -9 -1 -30 -5 -47 -8 -16 -3
-41 -7 -55 -8 -14 -1 -27 -5 -30 -9 -3 -4 -19 -9 -35 -12 -17 -2 -30 -5 -30
-6 0 -1 -11 -4 -24 -6 -14 -2 -54 -11 -90 -20 -81 -19 -95 -22 -151 -35 -53
-11 -75 -17 -75 -19 0 -1 -9 -3 -20 -5 -55 -10 -103 -21 -107 -25 -2 -1 -12
-3 -23 -5 -11 -2 -33 -6 -50 -10 -16 -4 -37 -8 -45 -10 -8 -2 -16 -4 -17 -5
-2 -2 -12 -4 -23 -5 -11 -1 -22 -4 -25 -5 -3 -1 -9 -4 -15 -5 -5 -1 -11 -3
-12 -4 -2 -1 -16 -4 -33 -7 -36 -5 -69 -12 -72 -14 -2 -2 -7 -4 -13 -5 -5 -1
-11 -3 -12 -5 -2 -1 -12 -3 -23 -5 -118 -21 -139 -26 -145 -33 -3 -4 -14 -8
-25 -8 -26 -2 -71 -11 -114 -24 -19 -5 -37 -7 -42 -5 -4 3 -10 1 -13 -4 -6 -9
-77 -25 -108 -24 -10 0 -18 -4 -18 -8 0 -5 -3 -8 -8 -8 -4 1 -9 0 -12 -1 -3
-1 -16 -3 -30 -5 -28 -3 -77 -13 -102 -21 -18 -5 -47 -12 -88 -20 -14 -3 -34
-8 -45 -11 -22 -8 -27 -9 -70 -17 -16 -3 -45 -10 -63 -15 -37 -11 -37 -11 -56
-11 -8 0 -13 -11 -14 -27 0 -16 -1 -30 -2 -33 -1 -3 -3 -34 -5 -70 -3 -36 -7
-103 -10 -150 -9 -126 -9 -655 0 -810 4 -74 8 -150 9 -167 0 -18 4 -33 8 -33
5 0 4 -9 -2 -20 -6 -11 -7 -20 -2 -20 5 0 8 -15 9 -32 0 -45 17 -220 29 -288
3 -19 8 -53 11 -75 6 -51 10 -82 17 -120 6 -32 15 -84 22 -125 2 -14 7 -36 10
-50 7 -28 12 -54 19 -90 11 -55 15 -76 21 -100 3 -14 7 -35 9 -47 2 -12 6 -27
10 -33 3 -5 9 -23 12 -38 8 -41 11 -57 13 -57 2 0 5 -14 14 -52 2 -12 9 -30
14 -40 5 -10 8 -26 7 -35 -2 -10 1 -18 6 -18 5 0 9 -10 9 -23 0 -13 3 -27 7
-31 5 -4 8 -11 9 -14 4 -30 39 -132 45 -132 5 0 6 -6 3 -14 -3 -8 -1 -17 5
-21 6 -3 11 -15 11 -26 0 -10 4 -19 8 -19 5 0 9 -6 10 -12 2 -26 16 -63 58
-155 8 -17 14 -36 14 -42 0 -6 4 -11 10 -11 5 0 9 -3 8 -8 -4 -10 69 -159 82
-167 5 -3 10 -13 10 -22 0 -8 9 -27 20 -43 11 -15 17 -30 13 -34 -3 -3 -2 -6
3 -6 5 0 22 -25 39 -55 16 -30 33 -55 38 -55 4 0 5 -5 2 -10 -3 -6 1 -13 9
-16 9 -3 16 -12 16 -19 0 -7 7 -18 15 -25 9 -7 13 -15 11 -18 -3 -2 5 -13 17
-24 12 -11 15 -16 7 -12 -14 7 -1 -9 53 -67 10 -11 15 -25 11 -31 -4 -7 -3 -8
4 -4 7 4 12 3 12 -3 0 -5 16 -24 35 -42 19 -19 35 -37 35 -41 0 -4 18 -26 40
-49 22 -23 37 -45 34 -50 -3 -5 -1 -8 4 -7 5 2 32 -20 59 -48 27 -28 59 -57
72 -63 14 -8 20 -18 17 -27 -3 -9 -1 -12 4 -9 5 3 21 -5 35 -19 14 -14 25 -22
25 -19 0 3 11 -5 24 -18 28 -28 61 -54 98 -77 16 -9 28 -20 28 -24 0 -4 6 -8
13 -8 8 0 22 -9 32 -20 10 -11 22 -20 27 -20 17 0 58 -37 50 -45 -4 -5 -2 -5
5 -1 6 3 36 -8 65 -25 29 -18 59 -32 66 -32 6 0 12 -3 12 -7 0 -3 20 -14 45
-24 24 -10 42 -23 38 -29 -3 -6 -1 -7 4 -4 9 6 105 -28 213 -76 14 -6 31 -9
38 -8 6 1 12 -2 12 -6 0 -5 8 -9 18 -10 44 -5 82 -16 82 -25 0 -5 4 -6 10 -3
6 3 16 3 22 -1 7 -5 19 -9 28 -10 8 -1 38 -7 65 -13 84 -21 134 -24 150 -11 8
7 21 10 29 7 8 -3 16 -2 18 4 2 5 13 11 26 14 12 3 30 7 40 9 9 2 49 15 87 29
39 14 106 38 150 54 44 15 82 31 83 36 2 4 7 7 12 7 5 0 19 4 32 9 13 5 26 9
31 10 4 0 27 12 52 26 25 13 45 22 45 19 0 -4 7 -1 15 6 8 7 15 9 15 4 0 -5 4
-4 8 2 4 6 35 23 70 39 34 16 62 31 62 35 0 4 6 7 13 7 15 0 160 84 165 95 2
5 10 8 18 8 8 0 14 5 14 11 0 5 5 7 10 4 6 -3 10 -3 10 2 0 4 27 26 60 48 37
25 60 48 61 60 1 11 2 170 3 354 1 293 -1 336 -15 352 -9 10 -19 16 -23 12 -3
-3 -6 0 -6 7 0 7 -3 11 -6 7 -4 -3 -26 7 -50 23 -23 17 -47 30 -53 30 -6 0
-11 5 -11 11 0 5 -5 7 -10 4 -6 -3 -10 -3 -10 2 0 4 -25 21 -55 37 -30 16 -55
33 -55 38 0 5 -4 7 -9 3 -5 -3 -16 2 -24 10 -9 8 -18 15 -21 15 -3 0 -35 18
-71 40 -36 22 -70 40 -75 40 -6 0 -10 4 -10 9 0 5 -8 11 -17 14 -24 8 -77 40
-81 50 -2 4 -10 7 -18 7 -8 0 -14 5 -14 11 0 5 -4 8 -10 4 -5 -3 -18 3 -30 15
-11 11 -27 20 -35 20 -8 0 -16 8 -16 18 -4 45 -5 809 -1 823 2 9 19 22 38 29
19 8 34 18 34 22 0 5 5 6 10 3 6 -3 10 -2 10 3 0 9 37 25 53 23 4 -1 7 3 7 7
0 10 50 37 63 34 4 -1 7 2 7 8 0 5 7 10 16 10 8 0 12 5 9 10 -3 6 1 10 10 10
15 0 72 29 135 69 14 8 27 16 30 16 16 4 60 29 60 36 0 4 11 10 25 13 14 4 25
11 25 17 0 6 4 8 9 5 5 -3 25 5 45 19 20 14 40 25 43 25 4 0 15 8 26 17 15 13
18 14 12 3 -4 -8 4 -4 18 9 15 14 27 20 28 15 0 -5 3 -1 7 8 4 10 7 209 7 443
-1 409 -2 425 -20 440 -11 8 -26 15 -32 15 -7 0 -13 5 -13 12 0 6 -3 9 -6 5
-4 -3 -12 -1 -20 6 -33 30 -44 37 -44 31 0 -4 -8 0 -17 8 -10 8 -37 26 -60 38
-24 13 -43 27 -43 32 0 4 -7 5 -15 2 -8 -4 -15 -1 -15 5 0 6 -20 20 -45 31
-26 12 -48 27 -52 35 -3 8 -9 13 -13 10 -4 -3 -13 2 -20 10 -7 8 -19 15 -26
15 -8 0 -14 5 -14 11 0 5 -5 7 -10 4 -6 -3 -13 1 -16 9 -3 9 -10 13 -15 10 -5
-3 -9 0 -9 5 0 6 -7 11 -16 11 -8 0 -22 6 -29 13 -34 30 -43 35 -49 30 -3 -4
-6 -1 -6 6 0 7 -4 9 -10 6 -5 -3 -10 -2 -10 3 0 5 -13 15 -30 22 -16 7 -30 16
-30 21 0 5 -6 9 -14 9 -7 0 -15 8 -18 18 -2 9 -3 166 -2 349 1 378 13 333 -96
358 -8 2 -16 4 -17 5 -2 2 -7 4 -13 5 -5 1 -12 4 -15 5 -3 1 -9 4 -15 5 -5 1
-11 3 -12 5 -2 1 -16 4 -33 6 -16 3 -35 9 -41 15 -6 5 -13 6 -16 4 -3 -3 -16
-1 -29 4 -13 5 -28 10 -34 11 -5 1 -30 8 -55 15 -77 22 -83 22 -152 5z m500
-1169 c7 -9 16 -16 20 -15 13 2 42 -8 42 -15 0 -3 15 -12 33 -20 17 -8 34 -17
37 -20 3 -4 26 -18 53 -31 26 -14 47 -28 47 -31 0 -4 11 -10 25 -13 14 -4 25
-11 25 -17 0 -6 5 -7 10 -4 6 3 10 1 10 -5 0 -6 4 -9 9 -6 5 3 14 -1 21 -9 7
-8 19 -15 26 -15 8 0 14 -4 14 -8 0 -5 11 -14 24 -20 l23 -10 -1 -262 c-1
-247 -2 -262 -20 -276 -11 -8 -26 -14 -33 -14 -7 0 -13 -4 -13 -10 0 -5 -7
-10 -15 -10 -8 0 -15 -4 -15 -10 0 -5 -5 -10 -11 -10 -7 0 -33 -13 -59 -29
-27 -16 -51 -27 -54 -24 -3 3 -8 -2 -12 -11 -3 -9 -10 -13 -15 -10 -5 3 -9 0
-9 -5 0 -6 -5 -11 -11 -11 -6 0 -23 -9 -39 -20 -15 -11 -30 -17 -34 -13 -3 3
-6 2 -6 -4 0 -6 -13 -16 -30 -23 -16 -7 -30 -16 -30 -21 0 -5 -3 -8 -7 -7 -5
1 -18 -3 -31 -10 -19 -11 -23 -10 -28 3 -3 8 -10 13 -14 10 -5 -3 -16 2 -24
11 -9 8 -16 12 -16 7 0 -4 -4 -3 -8 2 -12 17 -60 45 -77 45 -8 0 -15 5 -15 10
0 6 -7 10 -15 10 -8 0 -15 4 -15 8 0 5 -16 14 -35 22 -19 8 -35 17 -35 22 0 4
-6 8 -14 8 -7 0 -19 7 -26 15 -7 8 -16 12 -21 9 -5 -3 -9 0 -9 5 0 6 -6 11
-14 11 -7 0 -19 7 -26 15 -7 8 -16 12 -21 9 -5 -3 -9 0 -9 6 0 6 -4 9 -8 6 -5
-3 -15 3 -23 12 -13 15 -15 62 -15 277 l1 260 48 26 c26 14 45 28 43 30 -3 3
4 6 16 6 12 1 24 6 27 11 8 12 54 37 64 34 4 -1 10 5 13 13 3 8 10 12 15 9 5
-3 9 0 9 5 0 6 3 10 8 9 4 -1 25 9 47 23 22 13 42 22 44 21 2 -2 7 0 10 5 10
15 81 55 81 46 0 -4 5 0 11 9 11 19 37 14 57 -11z m-523 -1340 c17 -10 33 -16
38 -14 4 2 7 -3 7 -11 0 -9 3 -15 8 -14 7 2 63 -23 72 -32 3 -3 14 -12 24 -20
18 -13 19 -13 11 0 -4 8 6 2 23 -14 18 -17 32 -26 32 -22 0 4 12 -1 28 -12 15
-10 34 -21 42 -24 13 -5 15 -40 15 -233 0 -217 -1 -229 -20 -239 -11 -6 -32
-19 -47 -29 -16 -10 -28 -15 -28 -10 0 4 -4 4 -8 -2 -8 -12 -31 -26 -87 -56
-22 -12 -43 -27 -47 -33 -4 -6 -8 -7 -8 -3 0 4 -17 -4 -37 -18 -21 -14 -43
-25 -49 -25 -7 0 -14 -7 -18 -15 -3 -9 -12 -12 -22 -8 -13 5 -15 3 -9 -7 6
-10 2 -11 -21 -6 -16 4 -30 12 -32 17 -2 5 -10 9 -18 9 -8 0 -14 5 -14 11 0 5
-4 8 -9 5 -4 -3 -19 3 -31 14 -12 11 -27 17 -31 14 -5 -3 -9 0 -9 5 0 6 -7 11
-15 11 -8 0 -15 3 -15 8 0 4 -18 16 -40 26 -22 11 -40 24 -40 29 0 6 -3 7 -6
4 -4 -4 -19 2 -34 13 -16 11 -33 20 -40 20 -6 0 -9 4 -6 8 2 4 -5 9 -16 9 -12
1 -25 8 -29 15 -5 7 -9 112 -9 233 0 205 1 222 19 237 11 9 22 14 25 11 3 -4
6 -1 6 6 0 7 4 10 9 7 5 -3 20 3 34 14 14 11 30 20 36 20 6 0 11 5 11 11 0 5
4 8 9 5 5 -3 12 1 15 10 3 8 10 13 15 10 5 -3 14 1 21 9 6 7 19 11 27 8 11 -4
14 -2 9 5 -4 7 3 14 19 18 14 3 25 10 25 15 0 5 5 9 11 9 6 0 24 9 40 21 16
11 29 17 29 14 0 -4 7 1 16 9 16 17 30 12 119 -43z m-858 -157 c2 -7 12 -10
20 -7 10 4 14 2 10 -4 -4 -6 4 -14 18 -17 14 -4 25 -11 25 -16 0 -5 7 -7 15
-4 8 4 15 2 15 -4 0 -5 14 -15 31 -22 22 -10 27 -15 17 -21 -7 -5 -8 -9 -2 -9
5 0 11 -18 13 -41 1 -31 -1 -39 -11 -33 -10 6 -10 5 -1 -7 6 -8 10 -39 9 -72
-2 -43 -7 -61 -22 -71 -10 -8 -22 -12 -25 -10 -4 2 -10 -3 -13 -12 -3 -8 -10
-13 -15 -10 -5 3 -14 -1 -21 -9 -7 -8 -19 -15 -26 -15 -8 0 -14 -5 -14 -11 0
-5 -4 -7 -10 -4 -5 3 -10 3 -10 -2 0 -4 -11 -13 -25 -20 -20 -9 -27 -8 -33 2
-4 8 -11 14 -15 14 -15 0 -67 26 -67 33 0 5 -7 8 -15 8 -8 0 -15 5 -15 12 0 6
-3 8 -6 5 -4 -4 -19 3 -35 14 -27 19 -28 22 -31 133 -2 63 -1 113 1 111 2 -2
19 8 39 23 19 15 38 26 41 24 3 -1 13 4 23 12 9 8 19 12 22 9 3 -3 8 2 12 11
3 9 10 14 14 11 4 -3 13 1 19 9 13 16 60 9 68 -10z m1129 -803 c-3 -5 10 -16
29 -25 19 -9 37 -21 40 -26 4 -6 11 -8 16 -5 5 4 9 1 9 -6 0 -7 3 -10 6 -6 4
3 12 1 20 -6 33 -30 44 -37 44 -30 0 4 6 1 13 -5 8 -9 12 -50 12 -127 1 -106
-1 -114 -20 -119 -11 -3 -21 -5 -23 -5 -2 0 -11 -8 -20 -18 -9 -10 -24 -19
-32 -21 -8 -2 -22 -9 -30 -16 -14 -12 -78 -46 -87 -46 -2 0 -1 5 2 10 3 6 -1
10 -10 10 -10 0 -13 5 -9 12 4 6 3 8 -4 5 -12 -8 -44 2 -38 12 3 4 -5 8 -17 8
-12 1 -23 7 -25 13 -2 5 -10 10 -18 10 -8 0 -14 4 -14 9 0 5 -11 12 -25 15
l-26 7 3 122 c2 74 7 121 13 120 6 -1 17 4 25 11 8 6 32 21 53 31 20 11 37 23
37 28 0 4 4 6 9 3 5 -3 14 1 21 9 7 8 16 13 20 10 4 -3 10 2 14 10 3 8 8 15
11 15 4 0 4 -4 1 -9z"/>
<path d="M3705 4750 c-3 -5 -23 -17 -43 -27 -20 -9 -39 -19 -42 -22 -8 -10
-43 -30 -77 -45 -36 -16 -34 -7 -37 -166 -1 -72 3 -99 14 -111 8 -9 18 -14 23
-12 4 2 7 -1 7 -7 0 -6 4 -9 9 -5 5 3 12 1 16 -4 3 -5 18 -16 33 -24 15 -7 48
-26 75 -41 26 -15 47 -22 47 -16 0 5 7 10 15 10 8 0 15 5 15 12 0 6 3 9 6 5 4
-3 26 7 50 23 23 17 47 30 53 30 6 0 11 5 11 11 0 5 5 7 10 4 6 -3 10 -1 10 5
0 6 4 9 9 5 18 -10 23 15 23 123 1 117 -6 152 -27 152 -7 0 -21 7 -29 16 -9 8
-16 12 -16 7 0 -4 -4 -3 -8 2 -9 13 -60 43 -94 56 -16 6 -28 15 -28 20 0 12
-17 12 -25 -1z"/>
<path d="M4373 3653 c-3 -7 -11 -13 -18 -13 -8 0 -20 -7 -29 -15 -8 -9 -19
-14 -23 -13 -4 2 -9 -34 -10 -79 -1 -65 1 -83 12 -83 8 0 18 -8 24 -17 5 -10
13 -15 16 -11 4 4 16 -2 28 -13 23 -22 57 -25 75 -7 7 7 12 9 12 5 0 -4 6 -3
13 3 6 6 25 19 42 29 29 17 29 19 30 98 0 45 -2 81 -5 80 -13 -4 -89 37 -84
45 3 5 -13 8 -36 6 -23 -1 -44 -8 -47 -15z"/>
<path d="M4377 3233 c-10 -3 -55 -27 -99 -54 -45 -28 -86 -51 -92 -52 -6 -1
-18 -10 -27 -19 -9 -10 -18 -15 -21 -13 -3 3 -5 -64 -5 -149 0 -85 4 -153 9
-150 4 3 8 1 8 -4 0 -5 18 -17 40 -27 22 -10 40 -22 40 -27 0 -4 7 -8 16 -8 8
0 22 -7 31 -15 8 -8 19 -13 24 -10 5 4 9 2 9 -3 0 -5 8 -13 18 -16 9 -3 28
-13 42 -21 14 -8 26 -10 28 -5 2 6 8 8 13 4 5 -3 9 -1 9 4 0 6 14 15 30 21 17
5 30 15 30 20 0 6 3 11 8 10 15 -2 52 14 52 22 0 5 5 9 11 9 6 0 23 9 39 20
15 11 30 17 34 13 8 -9 8 -7 11 157 2 156 0 170 -21 170 -8 0 -14 5 -14 10 0
5 -3 9 -7 8 -5 -2 -26 8 -48 21 -22 14 -42 25 -45 26 -21 6 -39 18 -36 24 3 4
-4 8 -15 8 -10 1 -26 9 -35 17 -8 9 -16 15 -17 15 -1 -1 -10 -3 -20 -6z"/>
<path d="M3932 2654 c-12 -8 -22 -12 -22 -9 0 3 -6 1 -12 -5 -23 -19 -128 -79
-128 -72 0 3 -7 -3 -15 -14 -8 -10 -15 -16 -15 -12 0 4 -26 -9 -57 -29 -32
-20 -63 -36 -70 -36 -7 0 -13 -6 -13 -13 0 -8 -6 -11 -15 -8 -8 4 -15 2 -15
-4 0 -6 -13 -15 -30 -21 -21 -7 -30 -17 -31 -33 -1 -30 -1 -467 0 -490 1 -10
8 -18 16 -18 8 0 15 -4 15 -10 0 -5 9 -10 19 -10 11 0 21 -4 23 -8 3 -8 65
-45 146 -87 24 -13 52 -31 62 -40 11 -10 20 -15 20 -11 0 4 20 -7 45 -24 25
-17 45 -27 45 -23 0 4 4 2 9 -6 10 -16 71 -24 71 -10 0 5 24 21 53 35 98 49
136 71 130 78 -4 3 3 6 15 6 11 0 25 7 30 16 5 9 12 15 15 15 13 -1 77 33 77
41 0 5 4 7 9 4 5 -3 14 1 21 9 7 8 17 15 22 15 5 0 16 7 25 15 13 13 15 53 15
263 l-1 247 -28 22 c-15 13 -33 23 -39 23 -6 0 -17 7 -24 15 -7 8 -16 12 -21
9 -5 -3 -9 -1 -9 4 0 5 -18 17 -40 27 -22 10 -40 23 -40 28 0 6 -3 7 -6 4 -4
-4 -19 2 -34 13 -16 11 -33 20 -39 20 -6 0 -11 4 -11 8 0 5 -16 14 -35 22 -19
8 -35 16 -35 19 0 4 -15 12 -32 20 -18 8 -35 18 -38 23 -4 4 -16 1 -28 -8z"/>
<path d="M4340 1630 c-11 -11 -20 -17 -20 -13 0 4 -7 -2 -15 -13 -9 -12 -14
-14 -15 -6 0 7 -5 10 -10 7 -6 -4 -8 -11 -5 -16 3 -5 -1 -6 -9 -3 -9 3 -16 1
-16 -4 0 -6 -16 -16 -35 -23 -24 -9 -31 -16 -25 -24 6 -7 7 -14 5 -17 -5 -5
-8 -79 -6 -177 1 -24 4 -41 8 -38 3 4 12 -1 20 -11 10 -11 12 -12 8 -2 -4 8 2
6 12 -6 10 -11 24 -19 31 -16 6 2 12 -1 12 -8 0 -6 5 -8 10 -5 6 3 13 -1 16
-9 3 -9 14 -16 24 -16 10 0 20 -5 22 -10 5 -17 49 -20 65 -5 8 8 21 15 29 15
8 0 14 5 14 11 0 5 5 7 10 4 6 -3 13 1 16 9 3 9 11 16 17 16 6 0 19 8 30 18
15 12 18 13 12 2 -6 -11 -3 -10 12 3 11 9 22 15 24 13 8 -8 3 39 -5 52 -4 7
-3 12 1 12 5 0 8 39 7 87 l-1 86 -32 16 c-17 10 -28 20 -24 25 4 4 4 6 -2 4
-17 -5 -75 24 -68 35 3 5 2 7 -4 4 -6 -4 -19 0 -29 8 -27 20 -61 18 -84 -5z"/>
</g>
</svg>
